<?xml version="1.0" encoding="UTF-8"?>
<svg id="Layer_1" data-name="Layer 1" xmlns="http://www.w3.org/2000/svg" viewBox="0 0 384 384">
  <path d="M367.08,73.88l-259.9-.06c-1.08-4.9-1.39-9.53-2.14-14.56-3.87-25.87-25.52-45.11-51.81-45.11H17.22c-6.54,0-11.42,5.47-11.18,11.64.22,5.74,4.92,10.78,11.2,10.79l36.02.07c15.12.03,27.55,10.99,29.53,26.14l24,183.15c-20.72,1.62-35.44,18.81-34.63,38.67.8,19.41,16.51,35.21,36.55,35.54l12.25.14c-6.1,15.59-1.03,32.58,11.84,42.3,12.98,9.81,30.99,9.68,43.78-.31,12.59-9.83,17.49-26.54,11.38-42.19l72.01-.08c-8.19,21.25,4.14,43.47,25.1,48.6,21.02,5.14,41.73-9.47,44.28-30.75,2.57-21.46-14.02-40.5-36.2-40.47l-183.95.26c-8.78,0-14.48-7.07-14.55-14.5-.06-7.54,5.38-13.99,13.51-14.7l210.79-18.39c19.76-1.72,35.4-16.47,38.52-35.95l20.36-127.09c1.07-6.68-3.73-13.14-10.75-13.14ZM289.51,320.57c7.83-2.37,15.29,2.19,17.22,9.73,1.72,6.69-2.17,14.1-9.29,16.26-6.97,2.1-14.49-1.7-16.85-8.83-2.24-6.77,1.17-14.82,8.92-17.16ZM150.7,320.71c7.66-2.23,14.82,2.41,16.85,9.23,2.14,7.23-2.11,14.75-9.25,16.87-7,2.08-14.36-1.81-16.69-8.68-2.38-7.02,1.18-15.12,9.09-17.42ZM172.07,210.7c-6.36.7-11.89-3.77-12.51-10.41l-7.01-75.04c-.59-6.32,4.41-11.32,9.87-11.91,6.35-.68,11.9,3.73,12.52,10.37l7.01,74.76c.63,6.67-4.36,11.62-9.88,12.23ZM232.83,210.77c-6.16.21-11.6-4.62-11.6-11.29v-74.96c0-6.43,5.1-11.08,10.91-11.24,6.1-.17,11.53,4.6,11.54,11.26l.02,74.6c.01,6.86-5.09,11.43-10.87,11.63ZM312.34,125.05l-6.94,74.79c-.63,6.87-5.71,11.15-11.8,10.92-5.92-.22-11.29-5.4-10.66-12.05l7.04-75.1c.6-6.34,5.82-10.62,11.87-10.33,5.66.28,11.09,5.33,10.49,11.77Z"/>
</svg>