<?xml version="1.0" encoding="UTF-8"?>
<svg id="Layer_1" data-name="Layer 1" xmlns="http://www.w3.org/2000/svg" viewBox="0 0 388.04 388.04">
  <path d="M0,247.35v-9.08c2.15-4.81,4.85-8.48,8.85-12.47l78.63-78.43c7.9-7.55,19.79-7.66,27.57.1l61.39,61.22,136.43-136.53-18.02-18.23c-3.73-3.77-5.22-8.26-3.21-13.08,1.74-4.17,5.62-7.3,11.01-7.55l71.66-3.32c6.08-.28,11.16,3.52,12.45,9,1.35,5.76.16,11.13-.12,16.96l-2.7,56.56c-.3,6.25-4.73,11.26-10.5,12.79-4.07,1.08-7.61-.62-10.46-3.42l-18.78-18.42-153.95,153.95c-8.07,7.58-19.96,7.7-27.83-.15l-61.2-61.13-64.1,64c-7.02,7.01-17.54,7.72-25.38,2.07-5.55-3.99-9.07-9.03-11.76-14.83Z"/>
  <path d="M342.32,358.74l-48.84.06c-3.87,0-7.01-3.08-7.01-7.19v-157.7s57.65-57.54,57.65-57.54c2,1.33,3.36,2.47,4.86,4.54l-.03,210.69c0,3.7-2.72,7.12-6.63,7.13Z"/>
  <path d="M206.84,358.79c-4.7,0-7.16-3.74-7.15-7.85l.04-71.52c3.33-2.23,5.72-4.37,8.43-7.08l54.07-53.94.03,133.05c0,4.41-3.25,7.22-7.34,7.42l-48.08-.09Z"/>
  <path d="M175.51,351.34c0,4.73-3.45,7.52-7.6,7.52l-47.65-.04c-4.08,0-7.27-3.1-7.27-7.33l.02-110.56,33.06,32.79c7.91,7.84,17.79,12.33,29.4,12.62l.03,65Z"/>
  <path d="M33.65,358.83c-4.83,0-7.4-3.63-7.39-7.89l.06-61.92c10.75-.95,19.83-5.11,27.19-12.41l35.2-34.91.06,109.94c0,4.11-3.21,7.17-7.08,7.17l-48.05.02Z"/>
</svg>