<?xml version="1.0" encoding="UTF-8"?>
<svg id="Layer_1" data-name="Layer 1" xmlns="http://www.w3.org/2000/svg" viewBox="0 0 304.66 304.66">
  <path d="M248.25,45.76l-32.55.2-1.3.62c-.54,7.23-.77,14.5-.69,21.79-.37,1.83-1.05,4.2-2.97,4.72l-116.35.12c-1.57-.83-2.53-2.46-2.81-4.17l-.28-21.39c-.96-1.11-1.43-1.67-1.43-1.67l-33.52-.18c-10.87,1.1-16.85,5.52-18.05,16.78l-.07,224.97c1.25,8.92,5.45,16.32,15.22,17.11h197.76c9.75-.46,14.53-7.55,15.77-16.6l.02-224.96c-1.28-11.85-7.22-16.3-18.75-17.34ZM66.54,114.44c2.23-2.36,6.08-2.67,8.54-.08l11.63,12.28,26.06-24.5c2.38-2.24,6.02-1.77,8.11.51,2.06,2.27,2.02,5.9-.52,8.27l-30.37,28.39c-1.84,1.72-4.96,1.99-6.95-.02l-16.32-16.54c-2.4-2.44-2.35-6-.18-8.31ZM120.46,235.72l-30.67,28.65c-1.94,1.81-5.16,1.56-7.14-.48l-16.5-16.99c-2.22-2.29-1.29-5.93.55-7.71,2.32-2.25,5.99-2.43,8.28-.01l11.73,12.33,26.19-24.56c2.36-2.21,5.97-1.57,7.91.52,2.09,2.27,2.15,5.91-.35,8.25ZM120.69,173l-30.59,28.69c-1.83,1.71-5.03,2.14-7.09.04l-16.85-17.26c-2.25-2.31-1.27-5.99.53-7.74,2.35-2.29,6.05-2.38,8.34.04l11.66,12.31,26.14-24.54c2.37-2.22,6.01-1.67,8.02.53,1.88,2.05,2.23,5.7-.16,7.93ZM144.96,121.24h89.57c3.46.01,5.74,2.64,5.85,5.57.11,2.83-1.87,6.06-5.64,6.07l-89.72.04c-3.47,0-5.87-2.61-6-5.55-.16-3.23,2.25-6.13,5.94-6.13ZM234.81,257.78l-89.84.05c-3.56,0-5.87-2.71-5.95-5.75-.09-2.82,2.11-5.93,5.59-5.94l89.79-.03c3.43,0,5.81,2.53,5.98,5.51.16,2.72-1.75,6.16-5.57,6.16ZM234.81,195.33l-89.84.05c-3.52,0-5.85-2.72-5.95-5.65-.12-3.22,2.32-6.06,5.99-6.05h89.47c3.43,0,5.76,2.55,5.91,5.58.13,2.63-1.79,6.07-5.58,6.07Z"/>
  <path d="M203.37,62.64l-101.46.04.03-38.97,21.55-.09c2.89-.01,5.16-1.91,5.81-4.7,2.41-11.27,12.37-18.73,23.95-18.39,10.7.32,19.54,7.48,21.89,17.89.63,2.99,2.95,5.05,6.03,5.21l22.14.09.05,38.93Z"/>
</svg>