<?xml version="1.0" encoding="UTF-8"?>
<svg id="Layer_1" data-name="Layer 1" xmlns="http://www.w3.org/2000/svg" viewBox="0 0 388.04 388.04">
  <path d="M379.07,166.8l-23.14-5.8c-1.32-.32-2.31-1.46-2.62-2.85-4.11-18.32-11.19-35.43-21.2-51.29-1.09-1.72-.63-3.53.31-5.08l11.7-19.49c2.77-4.59,2.17-10.33-1.64-14.15l-22.56-22.61c-3.82-3.82-9.58-4.41-14.19-1.63l-19.46,11.71c-2.15,1.29-4,1.08-6.08-.25-16.18-10.31-33.8-16.97-52.53-21.3l-6.47-25.14c-1.39-5.41-5.85-8.93-11.55-8.93h-31.26c-5.68,0-10.2,3.52-11.56,8.95l-5.62,22.55c-.4,1.6-1.34,2.84-3.07,3.23-18.31,4.11-35.46,11.18-51.3,21.25-1.73,1.1-3.53.56-5.06-.35l-19.48-11.72c-4.6-2.78-10.36-2.2-14.19,1.63l-22.56,22.61c-3.81,3.81-4.42,9.55-1.65,14.15l11.72,19.47c1.14,1.89,1.23,3.69.01,5.62-9.9,15.67-16.83,32.66-20.91,50.77-.4,1.74-1.63,2.66-3.24,3.06l-22.53,5.62C3.53,168.17.03,172.69.04,178.38v31.28c0,5.63,3.55,10.15,8.92,11.48l22.57,5.63c1.99.5,2.92,1.68,3.37,3.72,3.96,17.59,10.11,34.43,20.05,49.43,1.62,2.44,1.95,4.28.41,6.86l-11.44,18.96c-2.77,4.59-2.15,10.35,1.65,14.16l22.56,22.6c3.83,3.84,9.57,4.41,14.19,1.64l19.57-11.74c1.8-1.08,3.56-1.33,5.48-.1,15.68,9.96,32.7,16.87,50.81,20.99,1.74.4,2.61,1.64,3.01,3.22l5.65,22.56c1.37,5.45,5.85,9,11.89,9l30.95-.02c5.34-.01,10.01-3.19,11.34-8.37l6.05-23.78c.32-1.29,1.39-2.29,2.8-2.6,18.35-4.15,35.49-11.23,51.38-21.28,1.41-.89,3.19-.69,4.52.1l19.97,12.02c4.64,2.79,10.38,2.19,14.23-1.66l22.52-22.57c3.8-3.82,4.42-9.56,1.65-14.16l-11.71-19.49c-1.26-2.1-1.18-3.93.16-6,10.36-16.19,16.95-33.91,21.37-52.61l25.73-6.67c5.13-1.33,8.32-5.96,8.32-11.28v-31.31c.01-5.66-3.51-10.2-8.93-11.56ZM203.38,307.73c-62.44,5.15-117.5-41.37-123.06-103.76-5.55-62.4,40.91-118.41,104.33-123.69,63.22-5.26,118,42.19,123.1,104.32,5.15,62.73-41.72,117.94-104.37,123.12Z"/>
  <path d="M219.62,178.03c.19,12.55-8.59,23.39-21.51,25.75l-.05,63.23c0,3.05-1.56,4.7-3.78,4.86-2.33.17-4.29-1.64-4.29-4.46l-.05-63.65c-12.69-2.32-21.38-12.79-21.52-25.02-.15-12.48,8.66-23.25,21.48-25.59l.08-32.62c.01-2.48,1.51-4.23,3.77-4.42,1.76-.15,4.2,1.22,4.22,3.67l.17,33.37c12.56,2.25,21.29,12.73,21.47,24.86Z"/>
  <path d="M272.93,203.82c.22,12.62-8.64,23.43-21.49,25.82l-.07,37.44c-.01,2.99-1.58,4.69-3.8,4.8-2.27.13-4.3-1.62-4.3-4.39v-37.82c-12.49-2.36-21.43-12.67-21.53-25.12-.09-12.4,8.56-23.14,21.45-25.52l.08-58.45c0-2.59,1.66-4.21,3.69-4.41,2.43-.24,4.39,1.58,4.39,4.42l.03,58.39c12.56,2.31,21.33,12.7,21.55,24.86Z"/>
  <path d="M166.3,209.25c.14,12.44-8.62,23.22-21.43,25.58l-.08,32.27c0,2.94-1.66,4.59-3.71,4.77-2.45.23-4.38-1.6-4.38-4.38l-.06-32.61c-12.51-2.3-21.33-12.68-21.54-24.87-.21-12.62,8.68-23.41,21.53-25.8l.13-64.38c.01-2.58,2.52-3.86,4.32-3.66,2.1.23,3.7,1.85,3.7,4.42l.07,63.68c12.72,2.29,21.33,12.85,21.46,24.99Z"/>
</svg>