<?xml version="1.0" encoding="UTF-8"?>
<svg id="Layer_1" data-name="Layer 1" xmlns="http://www.w3.org/2000/svg" viewBox="0 0 368.64 368.64">
  <path d="M0,188.27v-5.03c1.13-.46,1.11-1.89,2.34-2.91L166.87,43.4c9.61-8,24.66-7.86,34.07-.03l55.95,46.5.19-44.59c.02-4.26,3.37-6.9,7.44-7.03h43.59c3.91.25,7.26,2.87,7.26,7.16l.07,93.24,49.41,41.1c3.54,2.94,3.94,7.46,1.18,11.05l-13.7,16.34c-2.98,3.06-7.31,3.71-10.83.79L183.96,76.67,26.39,207.93c-3.67,3.06-8.29,2.16-11.12-1.16L0,188.27Z"/>
  <path d="M213.2,242.83l-58.4-.11-.1,87.65h-86.39c-8.82.25-15.66-6.07-15.82-14.98v-110.37s131.46-108.29,131.46-108.29l131.47,108.29v111.09c-.6,8.9-7.74,14.79-16.55,14.25h-85.68s0-87.53,0-87.53Z"/>
</svg>