<?xml version="1.0" encoding="UTF-8"?>
<svg id="Layer_1" xmlns="http://www.w3.org/2000/svg" version="1.1" viewBox="0 0 491.5 491.5">
  <!-- Generator: Adobe Illustrator 30.1.0, SVG Export Plug-In . SVG Version: 2.1.1 Build 136)  -->
  <path d="M14.4,491.5h-5.6c-6.6-3.1-8.8-8.4-7-15.7l30.1-120.3L303.9,83.4l105.1,105.2L139.9,457.7c-1.9,1.8-3.1,2.8-5.6,3.4l-120,30.4Z"/>
  <path d="M491.5,77.6v15.3c-.7.4-1.2,1.3-1.3,2.5-2.2,10-6.9,18.9-14.2,26.2l-36.9,36.9-105.1-105.1,35.4-35.6c9.7-9.7,22-15.9,35.8-16,15-1,29.3,3.5,39.9,14l31.1,31c8.5,8.5,13.1,19.3,15.3,30.7Z"/>
</svg>