<?xml version="1.0" encoding="UTF-8"?>
<svg id="Layer_1" data-name="Layer 1" xmlns="http://www.w3.org/2000/svg" viewBox="0 0 384 384">
  <path d="M375,0c5.88.52,8.52,3.22,9,9.09v6.66l-16.09,108.35c-.47,3.19-1.66,5.22-4.15,7.4l-159.14,132.29-34.26-34.24,103.71-103.74c4.22-4.9,3.75-11.6-.56-15.71-4.3-4.1-11.03-4.27-15.69.19l-103.38,103.34-34.24-34.26L252.5,20.24c2.18-2.47,4.21-3.68,7.41-4.15L369,0h6Z"/>
  <path d="M56.25,384h-26.25C13.75,384.12-.12,370.25,0,354v-27c2.73-7.19,7.63-12.98,14.33-14.96,8.26-2.43,15.63-.15,21.36,5.58l30.69,30.69c5.88,5.88,8.14,13.57,5.38,21.91-2.2,6.67-8.12,11.6-15.52,13.79Z"/>
  <path d="M179.66,315.59c-4.86,5.71-12.23,6.47-17.45,1.26l-95.07-95.07c-5.21-5.21-4.32-12.54.98-17.18,13.18-11.55,33.32-11.95,46.09.83l64.36,64.36c12.59,12.59,12.49,32.41,1.09,45.8Z"/>
  <polygon points="82.86 332.97 51.06 301.1 82.83 269.39 114.62 301.1 82.86 332.97"/>
</svg>