<?xml version="1.0" encoding="UTF-8"?>
<svg id="Layer_5" data-name="Layer 5" xmlns="http://www.w3.org/2000/svg" viewBox="0 0 1187.28 7.86">
  <defs>
    <style>
      .cls-1 {
        fill: #926d41;
      }
    </style>
  </defs>
  <path class="cls-1" d="M1183.09,2.28c-.37-.14-.77-.29-1.21-.45-.11-.04-.23-.08-.36-.13-1.63-.62-3.57-1.52-3.57-1.52,0,0-1.92.92-3.56,1.52-.12.05-.25.09-.37.13-.44.15-.89.28-1.35.4-5.1,1.35-11.51,1.12-12.37.8-.53-.2-2.2-1.06-2.2-1.06,0,0-.56.25-.9.89-.13.25-.2.79-.2.79,0,0-447.22-.52-452.04-1.22-2.69-.39-5.76-1.3-5.76-1.3,0,0-3.08.91-5.77,1.3-4.82.7-97.44.72-97.44.72h-4.75s-92.62-.02-97.44-.72c-2.69-.39-5.77-1.3-5.77-1.3,0,0-3.08.91-5.76,1.3-4.82.7-452.04,1.22-452.04,1.22,0,0-.07-.54-.2-.79-.34-.63-.9-.89-.9-.89,0,0-1.66.85-2.2,1.06-.86.32-7.27.55-12.37-.8-.46-.12-.91-.25-1.35-.4-.12-.04-.24-.08-.37-.13-1.65-.6-3.56-1.52-3.56-1.52,0,0-1.93.9-3.57,1.52-.12.05-.24.09-.36.13-.43.16-.84.31-1.21.45C.87,3.52,0,4.02,0,4.02c0,0,.87.5,4.19,1.74.36.13.75.28,1.17.43,0,0,.02,0,.03.01,1.69.62,3.92,1.65,3.92,1.65,0,0,2.22-1.07,3.93-1.65.01,0,.02,0,.04-.01.43-.15.86-.28,1.32-.39,5.1-1.35,11.51-1.12,12.37-.8.53.2,2.2,1.05,2.2,1.05,0,0,.56-.25.9-.88.13-.25.2-.79.2-.79,0,0,447.22.52,452.04,1.22,2.69.39,5.76,1.3,5.76,1.3,0,0,3.08-.91,5.77-1.3,4.82-.7,97.44-.72,97.44-.72h4.75s92.62.02,97.44.72c2.69.39,5.77,1.3,5.77,1.3,0,0,3.08-.91,5.76-1.3,4.82-.7,452.04-1.22,452.04-1.22,0,0,.07.54.2.79.34.63.9.88.9.88,0,0,1.66-.85,2.2-1.05.86-.32,7.27-.55,12.37.8.45.12.89.25,1.32.39.01,0,.02,0,.04.01,1.71.58,3.93,1.65,3.93,1.65,0,0,2.23-1.04,3.92-1.65,0,0,.02,0,.03-.01.43-.15.81-.3,1.17-.43,3.31-1.25,4.19-1.74,4.19-1.74,0,0-.87-.5-4.19-1.74ZM8.87,5.94c-.38,0-4.3-1.92-4.3-1.92,0,0,3.92-1.92,4.3-1.92.45,0,5.33,1.92,5.33,1.92,0,0-4.88,1.92-5.33,1.92ZM1178.41,5.94c-.45,0-5.33-1.92-5.33-1.92,0,0,4.88-1.92,5.33-1.92.38,0,4.3,1.92,4.3,1.92,0,0-3.92,1.92-4.3,1.92Z"/>
</svg>