<?xml version="1.0" encoding="UTF-8"?>
<svg id="Layer_5" data-name="Layer 5" xmlns="http://www.w3.org/2000/svg" viewBox="0 0 978.72 12.55">
  <defs>
    <style>
      .cls-1 {
        fill: #926d41;
      }
    </style>
  </defs>
  <path class="cls-1" d="M961.08,5.69C956.18,4.02,945.49,0,945.49,0c0,0-14.31,6.03-17.87,6.92-7.68,1.91-47.14,2.67-49.32,1.24-1.36-.91-5.59-4.68-5.59-4.68,0,0-1.42,1.13-2.28,3.93-.34,1.11-.51,3.52-.51,3.52,0,0-285.53-.61-297.79-3.72-6.84-1.73-14.67-3.94-14.67-3.94,0,0-7.83,2.21-14.67,3.94-12.26,3.11-94.62,3.11-106.87,0-6.84-1.73-14.67-3.94-14.67-3.94,0,0-7.83,2.21-14.67,3.94-12.26,3.11-297.79,3.72-297.79,3.72,0,0-.17-2.41-.51-3.52-.86-2.8-2.28-3.93-2.28-3.93,0,0-4.23,3.77-5.59,4.68-2.19,1.43-41.64.68-49.32-1.24C47.53,6.03,33.23,0,33.23,0,33.23,0,22.54,4.02,17.64,5.69,13.03,7.26,0,12.55,0,12.55h14.82l18.07-6.53,18.32,6.53h876.31l18.32-6.53,18.07,6.53h14.82s-13.02-5.29-17.63-6.85Z"/>
</svg>