<?xml version="1.0" encoding="UTF-8"?>
<svg id="Layer_5" data-name="Layer 5" xmlns="http://www.w3.org/2000/svg" viewBox="0 0 978.72 12.55">
  <defs>
    <style>
      .cls-1 {
        fill: #926d41;
      }
    </style>
  </defs>
  <path class="cls-1" d="M542.79,5.34c6.84,1.73,14.67,3.94,14.67,3.94,0,0,7.83-2.21,14.67-3.94,12.26-3.11,297.79-3.72,297.79-3.72,0,0,.17,2.41.51,3.52.86,2.8,2.28,3.93,2.28,3.93,0,0,4.23-3.77,5.59-4.68,2.19-1.43,41.64-.68,49.32,1.24,3.56.89,17.87,6.92,17.87,6.92,0,0,10.69-4.02,15.59-5.69,4.61-1.57,17.63-6.85,17.63-6.85h-11.64,797.66H-786.02,11.64,0s13.02,5.29,17.63,6.85c4.91,1.67,15.59,5.69,15.59,5.69,0,0,14.31-6.03,17.87-6.92,7.68-1.91,47.14-2.67,49.32-1.24,1.36.91,5.59,4.68,5.59,4.68,0,0,1.42-1.13,2.28-3.93.34-1.11.51-3.52.51-3.52,0,0,285.53.61,297.79,3.72,6.84,1.73,14.67,3.94,14.67,3.94,0,0,7.83-2.21,14.67-3.94,12.26-3.11,94.62-3.11,106.87,0Z"/>
</svg>