<?xml version="1.0" encoding="UTF-8"?>
<svg id="Layer_5" data-name="Layer 5" xmlns="http://www.w3.org/2000/svg" viewBox="0 0 252.39 11.12">
  <defs>
    <style>
      .cls-1 {
        fill: #fff;
      }
    </style>
  </defs>
  <path id="shop" class="cls-1" d="M243.97,3.04c-.75-.2-1.55-.42-2.43-.65-.23-.06-.47-.12-.72-.19-3.28-.9-7.18-2.2-7.18-2.2,0,0-3.85,1.33-7.17,2.2-.25.07-.5.13-.74.19-.88.22-1.79.41-2.72.59-10.26,1.95-23.16,1.62-24.89,1.15-1.08-.3-4.43-1.53-4.43-1.53,0,0-1.12.37-1.8,1.29-.27.36-.4,1.15-.4,1.15,0,0-20.5-.76-30.19-1.77-5.41-.56-11.6-1.88-11.6-1.88,0,0-6.19,1.32-11.6,1.88-9.7,1.01-21.47,1.05-21.47,1.05h19.24s-11.78-.03-21.47-1.05c-5.41-.56-11.6-1.88-11.6-1.88,0,0-6.19,1.32-11.6,1.88-9.7,1.01-30.3,1.77-30.3,1.77,0,0-.14-.79-.4-1.15-.68-.92-1.8-1.29-1.8-1.29,0,0-3.35,1.24-4.43,1.53-1.73.47-14.63.8-24.89-1.15-.93-.17-1.84-.37-2.72-.59-.24-.06-.49-.12-.74-.19-3.31-.87-7.17-2.2-7.17-2.2,0,0-3.89,1.3-7.18,2.2-.25.07-.49.13-.72.19-.87.23-1.68.45-2.43.65C1.76,4.84,0,5.56,0,5.56c0,0,1.76.72,8.43,2.52.73.2,1.51.41,2.36.63.02,0,.05.01.06.02,3.4.89,7.89,2.39,7.89,2.39,0,0,4.46-1.55,7.9-2.39.03,0,.05-.01.07-.02.86-.21,1.74-.4,2.65-.57,10.26-1.95,23.16-1.62,24.89-1.15,1.08.3,4.43,1.53,4.43,1.53,0,0,1.12-.37,1.8-1.28.27-.36.4-1.15.4-1.15,0,0,20.61.76,30.3,1.77,5.41.56,11.6,1.88,11.6,1.88,0,0,6.19-1.32,11.6-1.88,9.7-1.01,21.47-1.05,21.47-1.05h-19.24s11.78.03,21.47,1.05c5.41.56,11.6,1.88,11.6,1.88,0,0,6.19-1.32,11.6-1.88,9.7-1.01,30.19-1.77,30.19-1.77,0,0,.14.79.4,1.15.68.91,1.8,1.28,1.8,1.28,0,0,3.35-1.23,4.43-1.53,1.73-.47,14.63-.8,24.89,1.15.91.17,1.79.36,2.65.57.03,0,.05.01.07.02,3.44.84,7.9,2.39,7.9,2.39,0,0,4.49-1.5,7.89-2.39.02,0,.05-.01.06-.02.86-.22,1.64-.43,2.36-.63,6.67-1.81,8.43-2.52,8.43-2.52,0,0-1.76-.72-8.43-2.52ZM17.86,8.34c-.76,0-8.65-2.78-8.65-2.78,0,0,7.88-2.78,8.65-2.78.9,0,10.73,2.78,10.73,2.78,0,0-9.83,2.78-10.73,2.78ZM234.54,8.34c-.9,0-10.73-2.78-10.73-2.78,0,0,9.83-2.78,10.73-2.78.76,0,8.65,2.78,8.65,2.78,0,0-7.88,2.78-8.65,2.78Z"/>
</svg>